<?xml version="1.0" standalone="no"?>
<!DOCTYPE svg PUBLIC "-//W3C//DTD SVG 1.1//EN" "http://www.w3.org/Graphics/SVG/1.1/DTD/svg11.dtd">
<svg xmlns="http://www.w3.org/2000/svg" xmlns:xlink="http://www.w3.org/1999/xlink" version="1.1" id="body_1" width="1123" height="793">

<defs>
    <clipPath  id="1">

    <path id=""  clip-rule="evenodd" transform="matrix(1 0 0 1 0 0)"  d="M0 595L0 0L0 0L842 0L842 0L842 595L842 595L0 595z" />    </clipPath>
    <clipPath  id="2">

    <path id=""  clip-rule="evenodd" transform="matrix(1 0 0 1 0 0)"  d="M90 0L842 0L842 0L842 595L842 595L90 595z" />    </clipPath>
    <clipPath  id="3">

    <path id=""  clip-rule="evenodd" transform="matrix(1 0 0 1 0 0)"  d="M96 78L116.25 78L116.25 78L116.25 96L116.25 96L96 96z" />    </clipPath>
    <clipPath  id="4">

    <path id=""  clip-rule="evenodd" transform="matrix(1 0 0 1 0 0)"  d="M96 78L116.25 78L116.25 78L116.25 96L116.25 96L96 96z" />    </clipPath>
</defs>

<g transform="matrix(1.3333 0 0 1.3333 0 0)">
	<g clip-path="url(#1)" >
		<g clip-path="url(#2)" >
			<g clip-path="url(#3)" >
				<g clip-path="url(#4)" >
    <path id=""  transform="matrix(1 0 0 -1 0 595)"  d="M106.114 506.213C 107.112 506.213 107.921 507.022 107.921 508.02C 107.921 509.018 107.112 509.828 106.114 509.828C 105.116 509.828 104.307 509.018 104.307 508.02C 104.307 507.022 105.116 506.213 106.114 506.213z" stroke="none" fill="#00D8FF" fill-rule="nonzero" />
    <path id=""  transform="matrix(1 0 0 -1 0 595)"  d="M106.114 511.261C 103.785 511.261 101.482 510.922 99.797 510.335C 97.774 509.63 96.867 508.665 96.867 508.02C 96.867 507.35 97.843 506.295 99.981 505.564C 101.55 505.028 103.673 504.743 106.114 504.743C 108.403 504.743 110.537 505.031 112.124 505.561C 114.345 506.299 115.36 507.354 115.36 508.02C 115.36 508.362 115.101 508.766 114.629 509.158C 114.086 509.612 113.294 510.026 112.347 510.353C 110.645004 510.937 108.432 511.261 106.114 511.261zM106.114 503.879C 103.576004 503.879 101.359 504.178 99.7 504.747C 98.624 505.114 97.71 505.604 97.058 506.162C 96.367 506.753 96 507.397 96 508.02C 96 509.216 97.31 510.386 99.509 511.149C 101.309 511.776 103.655 512.125 106.11 512.125C 108.520996 512.125 110.836 511.787 112.625 511.167C 113.672 510.807 114.554 510.339 115.18 509.821C 115.86 509.252 116.22 508.629 116.22 508.02C 116.22 506.778 114.755 505.521 112.394 504.74C 110.724 504.185 108.493 503.879 106.114 503.879z" stroke="none" fill="#00D8FF" fill-rule="nonzero" />
    <path id=""  transform="matrix(1 0 0 -1 0 595)"  d="M102.918 509.846L103.292 509.63C 102.13 507.613 101.269 505.449 100.938 503.692C 100.539 501.586 100.923996 500.318 101.478 499.998C 101.615 499.918 101.795 499.875 102.014 499.875C 102.731 499.875 103.857 500.329 105.16 501.467C 106.409 502.558 107.715 504.257 108.936 506.371C 110.08 508.355 110.893 510.35 111.232 511.988C 111.703 514.282 111.297 515.686 110.717 516.021C 110.422 516.19 109.943 516.169 109.367 515.956C 108.701996 515.711 107.949 515.232 107.194 514.574C 105.837 513.392 104.451004 511.635 103.292 509.626L103.292 509.626L102.918 509.846zM102.014 499.011C 101.647 499.011 101.323 499.09 101.05 499.249C 100.017 499.846 99.657 501.568 100.092 503.854C 100.449 505.73 101.32 507.934 102.547 510.062C 103.753 512.15 105.2 513.987 106.628 515.229C 107.463 515.956 108.309 516.489 109.072 516.77C 109.904 517.076 110.624 517.076 111.149 516.774C 112.225 516.154 112.582 514.253 112.078 511.819C 111.721 510.091 110.872 508.006 109.684 505.943C 108.417 503.746 107.05 501.974 105.729004 500.819C 104.872 500.07 103.99 499.522 103.184 499.238C 102.763 499.087 102.367 499.011 102.014 499.011z" stroke="none" fill="#00D8FF" fill-rule="nonzero" />
    <path id=""  transform="matrix(1 0 0 -1 0 595)"  d="M103.296 506.367C 104.462 504.351 105.909 502.525 107.262 501.362C 108.885 499.965 110.173996 499.662 110.732 499.987C 111.311 500.32098 111.736 501.693 111.297 503.911C 110.973 505.539 110.156 507.519 108.932 509.633C 107.784 511.617 106.463 513.32 105.214 514.429C 103.465 515.985 102.047 516.334 101.467 515.999C 101.172 515.83 100.953 515.401 100.848 514.796C 100.73 514.098 100.766 513.205 100.96 512.222C 101.305 510.454 102.133 508.376 103.296 506.367zM110.213 499C 109.234 499 107.993 499.59 106.697 500.707C 105.25 501.953 103.778 503.807 102.547 505.935C 101.338 508.023 100.474 510.195 100.11 512.056C 99.898 513.144 99.859 514.141 99.995 514.944C 100.145996 515.819 100.503 516.442 101.032 516.748C 102.104004 517.371 103.929 516.73 105.786 515.077C 107.104004 513.907 108.486 512.128 109.677 510.069C 110.948 507.872 111.801 505.802 112.139 504.081C 112.358 502.964 112.394 501.927 112.24 501.085C 112.074 500.188 111.7 499.551 111.16 499.238C 110.89 499.079 110.57 499 110.213 499z" stroke="none" fill="#00D8FF" fill-rule="nonzero" />
				</g>
			</g>
		</g>
	</g>
</g>
</svg>